<svg width="20" height="20" viewBox="0 0 20 20" fill="none" xmlns="http://www.w3.org/2000/svg">
<g opacity="0.65" clip-path="url(#clip0_127_1589)">
<path d="M19.1668 9.99967C19.1668 4.93706 15.0628 0.833008 10.0002 0.833008C4.93755 0.833008 0.833496 4.93706 0.833496 9.99967C0.833496 14.575 4.1856 18.3673 8.56787 19.055V12.6494H6.2404V9.99967H8.56787V7.98014C8.56787 5.68275 9.93643 4.41374 12.0303 4.41374C13.0329 4.41374 14.0822 4.59277 14.0822 4.59277V6.84863H12.9263C11.7877 6.84863 11.4325 7.55529 11.4325 8.28092V9.99967H13.9748L13.5684 12.6494H11.4325V19.055C15.8147 18.3673 19.1668 14.575 19.1668 9.99967Z" fill="white"/>
</g>
<defs>
<clipPath id="clip0_127_1589">
<rect width="18.3333" height="18.3333" fill="white" transform="translate(0.833496 0.833008)"/>
</clipPath>
</defs>
</svg>
