<svg width="18" height="18" viewBox="0 0 18 18" fill="none" xmlns="http://www.w3.org/2000/svg">
<g opacity="1" clip-path="url(#clip0_127_1585)">
<path d="M8.99984 2.16764C11.2264 2.16764 11.4901 2.17741 12.3657 2.21647C13.1795 2.25228 13.619 2.389 13.9119 2.50293C14.2993 2.65267 14.5793 2.83496 14.869 3.12467C15.1619 3.41764 15.341 3.69434 15.4907 4.08171C15.6047 4.37467 15.7414 4.81738 15.7772 5.62793C15.8162 6.50684 15.826 6.77051 15.826 8.99382C15.826 11.2204 15.8162 11.484 15.7772 12.3597C15.7414 13.1735 15.6047 13.613 15.4907 13.9059C15.341 14.2933 15.1587 14.5732 14.869 14.863C14.576 15.1559 14.2993 15.335 13.9119 15.4847C13.619 15.5986 13.1763 15.7354 12.3657 15.7712C11.4868 15.8102 11.2231 15.82 8.99984 15.82C6.77328 15.82 6.5096 15.8102 5.63395 15.7712C4.82015 15.7354 4.3807 15.5986 4.08773 15.4847C3.70036 15.335 3.42041 15.1527 3.1307 14.863C2.83773 14.57 2.65869 14.2933 2.50895 13.9059C2.39502 13.613 2.2583 13.1702 2.22249 12.3597C2.18343 11.4808 2.17367 11.2171 2.17367 8.99382C2.17367 6.76725 2.18343 6.50358 2.22249 5.62793C2.2583 4.81413 2.39502 4.37467 2.50895 4.08171C2.65869 3.69434 2.84098 3.41439 3.1307 3.12467C3.42367 2.83171 3.70036 2.65267 4.08773 2.50293C4.3807 2.389 4.82341 2.25228 5.63395 2.21647C6.5096 2.17741 6.77328 2.16764 8.99984 2.16764ZM8.99984 0.666992C6.73747 0.666992 6.45427 0.676758 5.56559 0.71582C4.68018 0.754883 4.07145 0.898112 3.54411 1.10319C2.99398 1.31803 2.52848 1.60124 2.06624 2.06673C1.60075 2.52897 1.31755 2.99447 1.1027 3.54134C0.897624 4.07194 0.754395 4.67741 0.715332 5.56283C0.67627 6.45475 0.666504 6.73796 0.666504 9.00033C0.666504 11.2627 0.67627 11.5459 0.715332 12.4346C0.754395 13.32 0.897624 13.9287 1.1027 14.4561C1.31755 15.0062 1.60075 15.4717 2.06624 15.9339C2.52848 16.3962 2.99398 16.6826 3.54085 16.8942C4.07145 17.0993 4.67692 17.2425 5.56234 17.2816C6.45101 17.3206 6.73421 17.3304 8.99658 17.3304C11.259 17.3304 11.5422 17.3206 12.4308 17.2816C13.3162 17.2425 13.925 17.0993 14.4523 16.8942C14.9992 16.6826 15.4647 16.3962 15.9269 15.9339C16.3892 15.4717 16.6756 15.0062 16.8872 14.4593C17.0923 13.9287 17.2355 13.3232 17.2746 12.4378C17.3136 11.5492 17.3234 11.266 17.3234 9.00358C17.3234 6.74121 17.3136 6.45801 17.2746 5.56934C17.2355 4.68392 17.0923 4.0752 16.8872 3.54785C16.6821 2.99447 16.3989 2.52897 15.9334 2.06673C15.4712 1.60449 15.0057 1.31803 14.4588 1.10645C13.9282 0.901367 13.3228 0.758138 12.4373 0.719076C11.5454 0.676758 11.2622 0.666992 8.99984 0.666992Z" fill="white"/>
<path d="M8.99984 4.71973C6.63656 4.71973 4.71924 6.63704 4.71924 9.00033C4.71924 11.3636 6.63656 13.2809 8.99984 13.2809C11.3631 13.2809 13.2804 11.3636 13.2804 9.00033C13.2804 6.63704 11.3631 4.71973 8.99984 4.71973ZM8.99984 11.777C7.46663 11.777 6.22314 10.5335 6.22314 9.00033C6.22314 7.46712 7.46663 6.22363 8.99984 6.22363C10.533 6.22363 11.7765 7.46712 11.7765 9.00033C11.7765 10.5335 10.533 11.777 8.99984 11.777Z" fill="white"/>
<path d="M14.4489 4.55013C14.4489 5.10352 13.9997 5.54948 13.4495 5.54948C12.8962 5.54948 12.4502 5.10026 12.4502 4.55013C12.4502 3.99675 12.8994 3.55078 13.4495 3.55078C13.9997 3.55078 14.4489 4 14.4489 4.55013Z" fill="white"/>
</g>
<defs>
<clipPath id="clip0_127_1585">
<rect width="16.6667" height="16.6667" fill="white" transform="translate(0.666504 0.666992)"/>
</clipPath>
</defs>
</svg>
