<svg width="20" height="20" viewBox="0 0 20 20" fill="none" xmlns="http://www.w3.org/2000/svg">
<g opacity="1" clip-path="url(#clip0_127_1601)">
<path d="M11.1746 9.86795C11.1746 12.7484 8.85963 15.0834 6.00413 15.0834C3.14864 15.0834 0.833496 12.7478 0.833496 9.86795C0.833496 6.98807 3.14846 4.65234 6.00413 4.65234C8.85981 4.65234 11.1746 6.98754 11.1746 9.86795Z" fill="white"/>
<path d="M16.8469 9.8681C16.8469 12.5794 15.6894 14.7782 14.2616 14.7782C12.8338 14.7782 11.6763 12.5794 11.6763 9.8681C11.6763 7.15681 12.8336 4.95801 14.2614 4.95801C15.6893 4.95801 16.8467 7.15611 16.8467 9.8681" fill="white"/>
<path d="M19.167 9.86839C19.167 12.297 18.76 14.2671 18.2577 14.2671C17.7555 14.2671 17.3486 12.2976 17.3486 9.86839C17.3486 7.43922 17.7557 5.46973 18.2577 5.46973C18.7598 5.46973 19.167 7.43904 19.167 9.86839Z" fill="white"/>
</g>
<defs>
<clipPath id="clip0_127_1601">
<rect width="18.3333" height="18.3333" fill="white" transform="translate(0.833496 0.833008)"/>
</clipPath>
</defs>
</svg>
