<svg width="20" height="16" viewBox="0 0 20 16" fill="none" xmlns="http://www.w3.org/2000/svg">
<path opacity="1" fill-rule="evenodd" clip-rule="evenodd" d="M13.6301 14.0536C14.1438 14.7322 14.7603 15.5 14.7603 15.5C18.5445 15.375 20 12.7857 20 12.7857C20 7.0358 17.5342 2.37513 17.5342 2.37513C15.0685 0.446578 12.7226 0.500148 12.7226 0.500148L12.4829 0.78586C15.3938 1.71442 16.7466 3.0537 16.7466 3.0537C14.9658 2.03585 13.2192 1.53585 11.5925 1.33943C10.3596 1.19657 9.17808 1.23228 8.13356 1.37514C8.04387 1.37514 7.96723 1.38875 7.88085 1.40409C7.86828 1.40632 7.85551 1.40859 7.84246 1.41085C7.24315 1.46442 5.78767 1.69657 3.95548 2.53584C3.32192 2.83941 2.94521 3.0537 2.94521 3.0537C2.94521 3.0537 4.36644 1.64299 7.44863 0.714433L7.2774 0.500148C7.2774 0.500148 4.93151 0.446578 2.46575 2.37513C2.46575 2.37513 0 7.0358 0 12.7857C0 12.7857 1.43836 15.375 5.2226 15.5C5.2226 15.5 5.85616 14.6964 6.36986 14.0179C4.19521 13.3393 3.37329 11.9107 3.37329 11.9107C3.37329 11.9107 3.54452 12.0357 3.85274 12.2143C3.86986 12.2322 3.88699 12.25 3.92123 12.2679C3.94692 12.2857 3.9726 12.2991 3.99829 12.3125C4.02397 12.3259 4.04966 12.3393 4.07534 12.3572C4.50343 12.6072 4.93151 12.8036 5.32534 12.9643C6.0274 13.25 6.86644 13.5357 7.84246 13.7322C9.12671 13.9822 10.6336 14.0714 12.2774 13.75C13.0822 13.6072 13.9041 13.3572 14.7603 12.9822C15.3596 12.75 16.0274 12.4107 16.7295 11.9286C16.7295 11.9286 15.8733 13.3929 13.6301 14.0536ZM5.0513 9.14291C5.0513 8.05364 5.82184 7.16079 6.79786 7.16079C7.77388 7.16079 8.56154 8.05364 8.54442 9.14291C8.54442 10.2322 7.77388 11.125 6.79786 11.125C5.83896 11.125 5.0513 10.2322 5.0513 9.14291ZM11.3012 9.14291C11.3012 8.05364 12.0718 7.16079 13.0478 7.16079C14.0238 7.16079 14.7944 8.05364 14.7944 9.14291C14.7944 10.2322 14.0238 11.125 13.0478 11.125C12.0889 11.125 11.3012 10.2322 11.3012 9.14291Z" fill="#FFFCF2"/>
</svg>
