<svg width="20" height="20" viewBox="0 0 20 20" fill="none" xmlns="http://www.w3.org/2000/svg">
<g opacity="1" clip-path="url(#clip0_127_1597)">
<path fill-rule="evenodd" clip-rule="evenodd" d="M19.1668 9.99967C19.1668 15.0623 15.0628 19.1663 10.0002 19.1663C4.93755 19.1663 0.833496 15.0623 0.833496 9.99967C0.833496 4.93706 4.93755 0.833008 10.0002 0.833008C15.0628 0.833008 19.1668 4.93706 19.1668 9.99967ZM10.3285 7.60045C9.43694 7.9713 7.65501 8.73885 4.98274 9.90312C4.54881 10.0757 4.32149 10.2445 4.3008 10.4096C4.26583 10.6885 4.61518 10.7984 5.0909 10.948C5.15561 10.9683 5.22265 10.9894 5.29139 11.0117C5.75942 11.1639 6.38901 11.3419 6.71631 11.3489C7.0132 11.3553 7.34456 11.233 7.7104 10.9817C10.2072 9.29634 11.496 8.44446 11.577 8.42609C11.634 8.41314 11.7131 8.39685 11.7667 8.44449C11.8203 8.49213 11.8151 8.58235 11.8094 8.60655C11.7748 8.75409 10.4034 10.029 9.6938 10.6888C9.47258 10.8944 9.31566 11.0403 9.28358 11.0736C9.21172 11.1483 9.13848 11.2189 9.06809 11.2867C8.63327 11.7059 8.3072 12.0202 9.08614 12.5335C9.46046 12.7802 9.76 12.9842 10.0588 13.1877C10.3852 13.4099 10.7107 13.6316 11.1318 13.9077C11.2391 13.978 11.3416 14.0511 11.4414 14.1222C11.8212 14.393 12.1624 14.6362 12.584 14.5975C12.8289 14.5749 13.0819 14.3446 13.2104 13.6577C13.5141 12.0342 14.111 8.51676 14.249 7.06729C14.2611 6.9403 14.2458 6.77778 14.2336 6.70643C14.2214 6.63509 14.1959 6.53344 14.1032 6.45819C13.9933 6.36907 13.8238 6.35028 13.748 6.35161C13.4032 6.35769 12.8742 6.54162 10.3285 7.60045Z" fill="white"/>
</g>
<defs>
<clipPath id="clip0_127_1597">
<rect width="18.3333" height="18.3333" fill="white" transform="translate(0.833496 0.833008)"/>
</clipPath>
</defs>
</svg>
