<svg width="20" height="18" viewBox="0 0 20 18" fill="none" xmlns="http://www.w3.org/2000/svg">
<path d="M20 2.64037C19.2645 2.97453 18.4744 3.20032 17.6438 3.30237C18.4911 2.78216 19.1412 1.95669 19.4477 0.974062C18.655 1.45634 17.7768 1.80676 16.8422 1.99462C16.0935 1.17817 15.0277 0.666992 13.8474 0.666992C11.582 0.666992 9.74456 2.55096 9.74456 4.87566C9.74456 5.2044 9.78156 5.52412 9.85026 5.83299C6.43883 5.65688 3.41672 3.98154 1.39258 1.43647C1.04025 2.05964 0.837664 2.78216 0.837664 3.55164C0.837664 5.01113 1.56258 6.29992 2.66273 7.05405C1.98978 7.03147 1.35735 6.84271 0.804193 6.52751V6.5817C0.804193 8.6201 2.21792 10.3207 4.09583 10.7073C3.75055 10.803 3.38853 10.8536 3.01506 10.8536C2.75081 10.8536 2.49273 10.8283 2.24258 10.7795C2.76491 12.4503 4.27993 13.6678 6.07593 13.7003C4.67101 14.8292 2.90144 15.5021 0.979477 15.5021C0.648287 15.5021 0.321501 15.4822 0 15.4434C1.81626 16.6382 3.97252 17.3337 6.28909 17.3337C13.8378 17.3337 17.9644 10.9231 17.9644 5.36335C17.9644 5.18272 17.96 5.00029 17.9521 4.81966C18.7536 4.22539 19.4495 3.48571 19.9982 2.64308L20 2.64037Z" fill="#FFFCF2"/>
</svg>
