<svg width="190" height="190" viewBox="0 0 190 190" fill="none" xmlns="http://www.w3.org/2000/svg">
<path d="M67.8046 2.8503C69.6238 4.66951 70.4822 7.30344 70.4516 10.5385C70.421 13.7746 69.5001 17.5953 67.7796 21.7573C64.3389 30.0803 57.7166 39.7291 48.7228 48.7228C39.7291 57.7166 30.0803 64.3389 21.7573 67.7796C17.5953 69.5001 13.7746 70.421 10.5385 70.4516C7.30344 70.4822 4.66951 69.6238 2.8503 67.8046C1.03109 65.9853 0.172627 63.3514 0.203239 60.1163C0.233859 56.8803 1.15478 53.0595 2.8753 48.8976C6.31596 40.5746 12.9383 30.9258 21.932 21.932C30.9258 12.9383 40.5746 6.31596 48.8976 2.8753C53.0595 1.15478 56.8803 0.233859 60.1163 0.203239C63.3514 0.172627 65.9853 1.03109 67.8046 2.8503Z" stroke="#1A1A1A" stroke-width="0.404898"/>
<path d="M119.819 10.5549C122.679 13.4147 124.029 17.5552 123.98 22.6408C123.932 27.7278 122.485 33.7341 119.78 40.2766C114.371 53.3604 103.961 68.5284 89.8227 82.6665C75.6846 96.8046 60.5166 107.215 47.4329 112.624C40.8903 115.328 34.8841 116.776 29.797 116.824C24.7115 116.872 20.5709 115.523 17.7111 112.663C14.8513 109.803 13.5018 105.663 13.55 100.577C13.5981 95.49 15.0458 89.4838 17.7504 82.9412C23.1592 69.8575 33.5695 54.6895 47.7076 40.5514C61.8457 26.4132 77.0137 16.0029 90.0975 10.5942C96.64 7.88953 102.646 6.44184 107.733 6.39371C112.819 6.34559 116.959 7.6951 119.819 10.5549Z" stroke="#1A1A1A" stroke-width="0.6365"/>
<path d="M182.412 14.8364C186.905 19.3294 189.026 25.8346 188.95 33.8244C188.874 41.8167 186.6 51.253 182.351 61.532C173.853 82.0878 157.497 105.918 135.285 128.13C113.073 150.343 89.2426 166.698 68.6868 175.196C58.4078 179.445 48.9714 181.72 40.9792 181.795C32.9894 181.871 26.4842 179.751 21.9912 175.258C17.4982 170.765 15.378 164.259 15.4536 156.27C15.5292 148.277 17.8037 138.841 22.0529 128.562C30.5505 108.006 46.9061 84.1759 69.1184 61.9636C91.3307 39.7513 115.161 23.3958 135.717 14.8982C145.996 10.6489 155.432 8.37445 163.424 8.29882C171.414 8.22322 177.919 10.3434 182.412 14.8364Z" stroke="#1A1A1A"/>
</svg>
