<svg width="212" height="212" viewBox="0 0 212 212" fill="none" xmlns="http://www.w3.org/2000/svg">
<g clip-path="url(#clip0_127_1647)">
<path fill-rule="evenodd" clip-rule="evenodd" d="M161.745 19.6015C162.777 13.0363 161.783 8.19758 158.863 5.27741C155.943 2.35724 151.104 1.3639 144.539 2.39532C138 3.42259 129.97 6.4309 120.965 11.1939C102.966 20.7139 81.2816 37.1327 60.2071 58.2071C39.1326 79.2816 22.7139 100.966 13.1939 118.965C8.43086 127.97 5.42255 136 4.39528 142.539C3.36386 149.104 4.3572 153.943 7.27737 156.863C10.1975 159.783 15.0363 160.777 21.6014 159.745C28.1401 158.718 36.1707 155.71 45.1757 150.947C63.1745 141.427 84.8589 125.008 105.933 103.933C127.008 82.859 143.427 61.1746 152.947 43.1758C157.71 34.1707 160.718 26.1401 161.745 19.6015ZM106.641 104.641C148.89 62.3908 172.588 17.5878 159.57 4.57031C146.553 -8.44719 101.75 15.2502 59.5 57.5C17.2502 99.7498 -6.44723 144.553 6.57026 157.57C19.5878 170.588 64.3907 146.89 106.641 104.641Z" fill="#1A1A1A"/>
<path fill-rule="evenodd" clip-rule="evenodd" d="M185.316 43.1718C186.347 36.6066 185.354 31.7679 182.433 28.8477C179.513 25.9276 174.675 24.9342 168.109 25.9656C161.571 26.9929 153.54 30.0012 144.535 34.7642C126.536 44.2843 104.852 60.703 83.7774 81.7774C62.7029 102.852 46.2842 124.536 36.7642 142.535C32.0012 151.54 28.9929 159.571 27.9656 166.109C26.9342 172.675 27.9275 177.513 30.8477 180.433C33.7679 183.354 38.6066 184.347 45.1717 183.316C51.7104 182.288 59.741 179.28 68.746 174.517C86.7449 164.997 108.429 148.578 129.504 127.504C150.578 106.429 166.997 84.7449 176.517 66.7461C181.28 57.741 184.288 49.7104 185.316 43.1718ZM130.211 128.211C172.461 85.9611 196.158 41.1581 183.141 28.1406C170.123 15.1231 125.32 38.8206 83.0703 81.0703C40.8205 123.32 17.1231 168.123 30.1406 181.141C43.1581 194.158 87.961 170.461 130.211 128.211Z" fill="#1A1A1A"/>
<path fill-rule="evenodd" clip-rule="evenodd" d="M208.886 66.7421C209.917 60.1769 208.924 55.3382 206.004 52.418C203.084 49.4979 198.245 48.5045 191.68 49.5359C185.141 50.5632 177.11 53.5715 168.105 58.3345C150.107 67.8546 128.422 84.2733 107.348 105.348C86.2732 126.422 69.8545 148.107 60.3345 166.105C55.5715 175.11 52.5632 183.141 51.5359 189.68C50.5045 196.245 51.4978 201.084 54.418 204.004C57.3382 206.924 62.1769 207.917 68.742 206.886C75.2807 205.859 83.3113 202.85 92.3164 198.087C110.315 188.567 132 172.149 153.074 151.074C174.148 130 190.567 108.315 200.087 90.3164C204.85 81.3113 207.859 73.2807 208.886 66.7421ZM153.781 151.781C196.031 109.531 219.728 64.7284 206.711 51.7109C193.693 38.6934 148.89 62.3909 106.641 104.641C64.3908 146.89 40.6934 191.693 53.7109 204.711C66.7284 217.728 111.531 194.031 153.781 151.781Z" fill="#1A1A1A"/>
</g>
<defs>
<clipPath id="clip0_127_1647">
<rect width="212" height="212" fill="white"/>
</clipPath>
</defs>
</svg>
