<svg width="240" height="240" viewBox="0 0 240 240" fill="none" xmlns="http://www.w3.org/2000/svg">
<path fill-rule="evenodd" clip-rule="evenodd" d="M120 239C185.722 239 239 185.722 239 120C239 54.2781 185.722 1 120 1C54.2781 1 1 54.2781 1 120C1 185.722 54.2781 239 120 239ZM120 240C186.274 240 240 186.274 240 120C240 53.7258 186.274 0 120 0C53.7258 0 0 53.7258 0 120C0 186.274 53.7258 240 120 240Z" fill="#1A1A1A"/>
<circle cx="120" cy="120" r="62" fill="#1A1A1A"/>
<path fill-rule="evenodd" clip-rule="evenodd" d="M130.184 33.1938L129.399 41.001L125.876 40.6467L126.661 32.8395L123.826 18L127.507 18.3703L129.055 26.5725L132.268 18.8491L135.949 19.2194L130.184 33.1938ZM120.285 39.1143C119.403 39.9782 118.198 40.4398 116.668 40.4988L111.377 40.7031L110.515 18.3919L115.806 18.1876C117.315 18.1294 118.565 18.528 119.555 19.3835C120.655 20.32 121.24 21.6806 121.309 23.4655L121.752 34.9399C121.786 35.8111 121.688 36.5916 121.459 37.2814C121.19 38.0153 120.798 38.6263 120.285 39.1143ZM115.942 21.6937L114.157 21.7626L114.747 37.0617L116.532 36.9928C117.17 36.9682 117.612 36.8341 117.857 36.5905C118.145 36.324 118.275 35.8189 118.246 35.0752L117.803 23.6009C117.774 22.8572 117.594 22.3321 117.263 22.0257C116.977 21.7814 116.537 21.6707 115.942 21.6937ZM105.985 38.0191L102.034 38.757L102.057 42.3545L98.8276 42.9577L98.868 43.0789L90.0914 46.0006L83.039 24.8157L91.8156 21.894L92.9238 25.2231L87.4763 27.0365L89.2495 32.363L93.0022 31.1137L94.1104 34.4428L90.3577 35.6921L92.3122 41.5633L97.7597 39.7498L98.5566 42.1436L98.8358 20.2422L102.285 19.598L110.774 40.7264L107.262 41.3823L105.985 38.0191ZM104.745 34.6813L101.896 27.069L101.986 35.1967L104.745 34.6813ZM89.7862 46.0931L86.5729 47.6543L81.0206 40.3869L79.5862 41.0839L83.5031 49.1458L80.3472 50.6791L70.5897 30.5961L75.3522 28.2822C76.7102 27.6224 78.0147 27.4851 79.2657 27.8702C80.6495 28.2854 81.7317 29.2963 82.5123 30.903L83.5578 33.0547C84.3477 34.6805 84.4782 36.1656 83.9493 37.5101C83.8805 37.709 83.7879 37.9077 83.6715 38.1061L89.7862 46.0931ZM79.3564 32.4363C79.0312 31.7669 78.6554 31.3584 78.2291 31.2109C77.869 31.1022 77.4211 31.1779 76.8856 31.4381L75.2789 32.2187L78.0528 37.928L79.6595 37.1474C80.195 36.8872 80.5314 36.5819 80.6685 36.2316C80.8253 35.8244 80.7364 35.2766 80.4019 34.588L79.3564 32.4363ZM58.9927 50.5976C59.489 50.6096 59.9004 50.7977 60.2269 51.1619C60.5533 51.5261 60.7027 51.9634 60.6748 52.4738C60.6486 52.9543 60.4534 53.3578 60.0892 53.6842C59.7251 54.0107 59.2948 54.168 58.7986 54.1559C58.3039 54.1139 57.8934 53.9108 57.5669 53.5466C57.2404 53.1824 57.0903 52.7601 57.1165 52.2797C57.1443 51.7692 57.3403 51.3507 57.7045 51.0243C58.0687 50.6978 58.4981 50.5556 58.9927 50.5976ZM52.2823 77.8833C53.0947 76.5855 53.392 75.3291 53.1743 74.114C53.0598 73.4152 52.7752 72.7478 52.3203 72.1118C51.8789 71.5345 51.2887 71.0145 50.5497 70.5519L40.8166 64.4589C39.3026 63.5111 37.8489 63.2283 36.4557 63.6105C35.1909 63.9477 34.158 64.7562 33.3569 66.0359L30.5473 70.5239L49.4728 82.3713L52.2823 77.8833ZM35.3831 69.4117L36.3309 67.8976C36.6468 67.393 36.9862 67.0912 37.3492 66.9922C37.7888 66.8911 38.3241 67.038 38.9549 67.4329L48.688 73.5259C49.3189 73.9208 49.6634 74.3121 49.7218 74.6998C49.7846 75.0402 49.6468 75.4808 49.3083 76.0215L48.3605 77.5356L35.3831 69.4117ZM42.8299 88.5355L44.4506 84.8577L47.9478 85.7017L49.3884 82.4326L27.1557 77.5152L25.7408 80.7259L43.1842 92.9816L41.2738 92.4327L39.6883 97.9509L33.7409 96.242L34.8332 92.4406L31.461 91.4716L30.3687 95.273L24.9732 93.7227L26.5587 88.2045L23.1865 87.2355L20.632 96.1259L42.0915 102.292L44.6461 93.4016L44.5649 93.3783L45.8126 90.547L42.8299 88.5355ZM33.1032 82.0532L40.9955 83.9974L39.8636 86.566L33.1032 82.0532ZM41.3773 106.467L41.8983 102.933L31.8545 103.484C31.7562 103.276 31.6442 103.087 31.5187 102.918C30.706 101.724 29.4056 100.995 27.6174 100.731L25.2507 100.382C23.4836 100.122 22.0386 100.446 20.9159 101.355C19.8928 102.172 19.2711 103.327 19.0509 104.82L18.2788 110.059L40.368 113.315L40.8796 109.844L32.0124 108.536L32.245 106.959L41.3773 106.467ZM23.0915 104.094C23.4536 103.825 24.0027 103.745 24.7391 103.853L27.1058 104.202C27.8631 104.314 28.3658 104.549 28.6138 104.908C28.8259 105.219 28.8886 105.669 28.8017 106.258L28.5413 108.025L22.2616 107.099L22.5221 105.332C22.6089 104.743 22.7987 104.33 23.0915 104.094ZM198.964 127.068L198.729 130.633L208.696 129.273C208.811 129.473 208.938 129.652 209.076 129.81C209.983 130.935 211.338 131.557 213.141 131.675L215.529 131.832C217.311 131.949 218.725 131.509 219.771 130.512C220.725 129.616 221.251 128.415 221.35 126.908L221.697 121.625L199.417 120.161L199.187 123.662L208.131 124.25L208.026 125.841L198.964 127.068ZM217.381 127.958C217.042 128.255 216.501 128.38 215.758 128.331L213.371 128.174C212.607 128.124 212.087 127.93 211.811 127.592C211.575 127.3 211.476 126.856 211.515 126.262L211.632 124.48L217.966 124.896L217.849 126.678C217.81 127.272 217.654 127.699 217.381 127.958ZM210.862 137.202L216.368 138.296L215.25 143.927L218.691 144.611L220.494 135.538L198.594 131.188L196.791 140.26L196.868 140.276L195.787 143.406L198.925 145.165L197.612 148.963L194.058 148.41L192.891 151.787L215.453 154.857L216.599 151.541L197.634 140.428L200.233 140.944L201.351 135.313L207.421 136.518L206.65 140.398L210.091 141.082L210.862 137.202ZM201.127 149.536L209.152 150.824L202.043 146.883L201.127 149.536ZM189.726 160.449C189.41 159.256 189.605 157.98 190.309 156.62L192.746 151.919L212.569 162.195L210.132 166.896C209.438 168.236 208.474 169.125 207.24 169.564C205.883 170.058 204.411 169.894 202.825 169.072L192.63 163.787C191.856 163.386 191.226 162.916 190.739 162.376C190.234 161.779 189.897 161.137 189.726 160.449ZM207.017 165.281L207.839 163.695L194.247 156.649L193.425 158.235C193.131 158.801 193.029 159.252 193.12 159.586C193.209 159.968 193.584 160.33 194.245 160.672L204.44 165.957C205.1 166.299 205.646 166.402 206.076 166.266C206.43 166.138 206.743 165.809 207.017 165.281ZM189.954 171.956L183.558 167.41L185.61 164.525L192.005 169.071L206.303 173.95L204.16 176.966L196.266 174.252L201.388 180.866L199.244 183.882L189.954 171.956ZM184.496 193.958L181.854 196.362L184.215 198.957L192.095 191.788L189.734 189.193L187.092 191.597L174.428 177.676L171.832 180.037L184.496 193.958ZM164.938 185.049C163.68 185.922 162.916 186.984 162.644 188.234C162.353 189.679 162.711 191.126 163.718 192.576L170.486 202.322C171.492 203.772 172.723 204.612 174.179 204.844C175.445 205.027 176.706 204.681 177.964 203.808C179.222 202.935 179.986 201.873 180.257 200.624C180.548 199.179 180.191 197.731 179.184 196.282L172.416 186.535C171.409 185.086 170.178 184.245 168.723 184.013C167.457 183.83 166.195 184.176 164.938 185.049ZM175.963 200.926C175.456 201.278 175.025 201.422 174.67 201.358C174.251 201.313 173.816 200.967 173.368 200.321L166.6 190.574C166.151 189.928 165.979 189.4 166.083 188.991C166.147 188.636 166.432 188.283 166.939 187.931C167.428 187.592 167.859 187.448 168.231 187.5C168.663 187.562 169.097 187.908 169.534 188.537L176.302 198.283C176.739 198.912 176.911 199.439 176.819 199.866C176.737 200.233 176.452 200.587 175.963 200.926ZM147.516 194.484L144.201 195.813L149.735 204.213C149.605 204.403 149.498 204.594 149.416 204.788C148.793 206.092 148.818 207.582 149.491 209.26L150.382 211.48C151.046 213.138 152.054 214.223 153.405 214.735C154.626 215.208 155.937 215.163 157.338 214.601L162.253 212.63L153.941 191.907L150.684 193.213L154.021 201.532L152.541 202.126L147.516 194.484ZM154.676 211.476C154.261 211.299 153.915 210.865 153.638 210.174L152.747 207.954C152.462 207.243 152.413 206.69 152.598 206.295C152.759 205.956 153.116 205.675 153.669 205.453L155.327 204.788L157.69 210.68L156.032 211.345C155.479 211.566 155.027 211.61 154.676 211.476ZM144.852 215.024L143.466 209.584L139.633 210.56L138.767 207.16L142.599 206.183L141.072 200.187L135.508 201.604L134.885 199.159L133.018 220.921L129.531 221.313L122.602 199.622L126.153 199.224L127.181 202.671L131.175 202.223L131.414 198.633L134.658 198.269L134.642 198.204L143.606 195.921L149.118 217.558L140.154 219.841L139.288 216.441L144.852 215.024ZM130.463 213.89L128.175 206.09L130.965 205.777L130.463 213.89ZM116.827 199.381C115.297 199.334 114.062 199.711 113.123 200.512C112.577 200.963 112.144 201.545 111.824 202.258C111.548 202.931 111.397 203.703 111.37 204.574L111.015 216.051C110.96 217.837 111.449 219.235 112.481 220.245C113.41 221.168 114.629 221.652 116.138 221.699L121.431 221.862L122.12 199.545L116.827 199.381ZM118.032 218.247L116.246 218.192C115.651 218.173 115.22 218.032 114.951 217.769C114.642 217.44 114.499 216.904 114.522 216.16L114.877 204.682C114.9 203.938 115.064 203.444 115.369 203.198C115.632 202.972 116.081 202.869 116.719 202.888L118.505 202.944L118.032 218.247ZM90.0608 207.249C89.822 206.814 89.7781 206.364 89.9291 205.899C90.08 205.434 90.3832 205.085 90.8387 204.853C91.2673 204.634 91.7142 204.6 92.1795 204.751C92.6447 204.902 92.9967 205.195 93.2355 205.631C93.4475 206.079 93.478 206.536 93.327 207.002C93.1761 207.467 92.8863 207.809 92.4576 208.027C92.0022 208.26 91.5419 208.3 91.0767 208.149C90.6115 207.998 90.2729 207.698 90.0608 207.249ZM70.739 182.78L73.7029 184.775L70.2073 193.226L71.5305 194.116L76.5344 186.68L79.4454 188.639L66.98 207.163L62.5871 204.207C61.3345 203.364 60.5606 202.305 60.2653 201.03C59.9293 199.625 60.2599 198.181 61.2571 196.699L62.5927 194.715C63.6018 193.215 64.8205 192.356 66.2487 192.138C66.4553 192.098 66.6736 192.078 66.9036 192.079L70.739 182.78ZM64.1681 198.658C63.7526 199.276 63.5881 199.806 63.6746 200.249C63.7615 200.615 64.052 200.964 64.5459 201.296L66.0279 202.293L69.5716 197.027L68.0897 196.03C67.5957 195.698 67.1628 195.56 66.791 195.617C66.3601 195.686 65.931 196.038 65.5037 196.673L64.1681 198.658ZM58.9639 189.924L55.247 194.132L50.9443 190.33L48.6212 192.96L55.5534 199.084L70.3366 182.351L63.4044 176.227L63.3549 176.283L61.1875 173.756L58.0849 175.578L55.468 172.527L57.7398 169.738L55.4137 167.026L41.3752 184.954L43.6598 187.617L62.8743 176.827L61.0814 178.856L65.3841 182.658L61.287 187.295L58.3229 184.676L55.9998 187.306L58.9639 189.924ZM53.1997 175.272L48.0371 181.55L55.0273 177.402L53.1997 175.272ZM49.5537 160.024C50.7443 160.35 51.7505 161.159 52.5724 162.451L55.4148 166.918L36.5768 178.904L33.7344 174.437C32.9239 173.163 32.6386 171.883 32.8784 170.596C33.133 169.174 34.0137 167.983 35.5208 167.024L45.2089 160.86C45.9445 160.392 46.6678 160.083 47.3789 159.933C48.1487 159.796 48.8736 159.826 49.5537 160.024ZM36.6947 172.553L37.6535 174.06L50.571 165.841L49.6121 164.334C49.2697 163.796 48.9313 163.482 48.5969 163.392C48.2218 163.278 47.7203 163.421 47.0924 163.82L37.4043 169.985C36.7764 170.384 36.4134 170.804 36.3156 171.245C36.2487 171.615 36.375 172.051 36.6947 172.553ZM39.5493 154.616L46.6817 151.345L48.1576 154.563L41.0252 157.834L29.657 167.785L28.1147 164.421L34.4082 158.938L26.1203 160.072L24.5779 156.709L39.5493 154.616ZM23.2542 138.893L22.5046 135.4L19.0741 136.136L21.3093 146.553L24.7399 145.816L23.9903 142.323L42.3906 138.375L41.6545 134.944L23.2542 138.893ZM40.7884 126.527C40.6645 125.001 40.1303 123.807 39.1856 122.945C38.0822 121.968 36.6509 121.551 34.8917 121.693L23.065 122.653C21.3058 122.796 19.9605 123.439 19.0292 124.581C18.2359 125.584 17.9012 126.849 18.0251 128.375C18.149 129.901 18.6833 131.095 19.628 131.957C20.7313 132.934 22.1626 133.351 23.9218 133.208L35.7485 132.248C37.5077 132.106 38.853 131.463 39.7843 130.321C40.5776 129.318 40.9123 128.053 40.7884 126.527ZM21.5223 128.091C21.4724 127.476 21.5643 127.031 21.798 126.756C22.0477 126.416 22.5646 126.214 23.3489 126.151L35.1756 125.191C35.9598 125.127 36.5026 125.243 36.8039 125.538C37.0789 125.772 37.2414 126.196 37.2913 126.811C37.3394 127.404 37.2475 127.849 37.0156 128.145C36.7446 128.487 36.2277 128.689 35.4647 128.751L23.6379 129.711C22.8749 129.773 22.3321 129.657 22.0096 129.363C21.7329 129.109 21.5704 128.684 21.5223 128.091ZM151.967 27.0054L155.36 28.121L156.456 24.7878L146.335 21.4609L145.24 24.7941L148.633 25.9097L142.757 43.7878L146.09 44.8834L151.967 27.0054ZM153.805 48.3564C155.185 49.0204 156.485 49.1624 157.707 48.7826C159.107 48.324 160.19 47.2995 160.956 45.7091L166.101 35.0173C166.867 33.4269 166.992 31.9413 166.476 30.5605C166.011 29.3691 165.089 28.4415 163.71 27.7775C162.33 27.1135 161.03 26.9715 159.808 27.3513C158.408 27.81 157.325 28.8345 156.559 30.4248L151.414 41.1167C150.648 42.707 150.523 44.1926 151.039 45.5734C151.504 46.7648 152.426 47.6924 153.805 48.3564ZM162.188 30.9391C162.744 31.2065 163.081 31.5105 163.2 31.8511C163.368 32.2385 163.281 32.7867 162.94 33.4957L157.794 44.1875C157.453 44.8965 157.079 45.3063 156.671 45.4171C156.331 45.5364 155.883 45.4623 155.327 45.1948C154.79 44.9366 154.453 44.6326 154.315 44.2828C154.156 43.8762 154.243 43.328 154.575 42.6382L159.721 31.9464C160.053 31.2566 160.427 30.8468 160.844 30.7168C161.203 30.6068 161.651 30.6809 162.188 30.9391ZM170.857 59.0076L173.643 61.2437L178.245 52.2992C178.474 52.3195 178.694 52.3182 178.903 52.2953C180.344 52.1979 181.631 51.4444 182.762 50.0347L184.259 48.169C185.377 46.776 185.828 45.3652 185.611 43.9369C185.424 42.6414 184.741 41.5212 183.564 40.5762L179.434 37.262L165.459 54.6753L168.195 56.8714L173.806 49.8812L175.049 50.8795L170.857 59.0076ZM182.148 44.4296C182.197 44.878 181.989 45.3924 181.523 45.9729L180.026 47.8386C179.546 48.4356 179.089 48.7504 178.654 48.7829C178.279 48.8089 177.859 48.6356 177.395 48.2629L176.002 47.1449L179.975 42.1945L181.368 43.3125C181.832 43.6852 182.092 44.0576 182.148 44.4296ZM190.081 51.2191L186.026 55.1013L188.761 57.9583L186.226 60.3846L183.491 57.5276L179.021 61.8067L182.992 65.9541L181.187 67.6821L201.027 58.5468L203.091 61.3842L187.662 78.1298L185.561 75.2408L188.048 72.6422L185.684 69.3921L182.446 70.9589L180.524 68.3167L180.457 68.3804L174.06 61.6986L190.189 46.2583L196.586 52.9402L194.051 55.3665L190.081 51.2191ZM196.178 64.2435L190.529 70.0881L188.878 67.8182L196.178 64.2435ZM190.128 82.9078C190.843 84.2618 191.78 85.1496 192.94 85.5712C193.602 85.823 194.322 85.9118 195.101 85.8376C195.822 85.7457 196.568 85.4962 197.339 85.0893L207.494 79.7296C209.074 78.8958 210.048 77.7805 210.417 76.3837C210.76 75.1205 210.579 73.8213 209.875 72.4861L207.403 67.8034L187.657 78.225L190.128 82.9078ZM205.938 72.5441L206.772 74.1238C207.05 74.6504 207.14 75.0954 207.044 75.459C206.91 75.89 206.515 76.2792 205.856 76.6266L195.701 81.9863C195.043 82.3337 194.531 82.4353 194.167 82.2911C193.841 82.1746 193.529 81.8343 193.231 81.2701L192.397 79.6904L205.938 72.5441ZM210.264 102.248C210.004 102.67 209.634 102.931 209.155 103.03C208.676 103.129 208.223 103.038 207.796 102.757C207.394 102.493 207.144 102.121 207.045 101.642C206.946 101.163 207.026 100.713 207.286 100.29C207.571 99.8834 207.954 99.6307 208.432 99.5317C208.911 99.4328 209.352 99.5155 209.754 99.7798C210.181 100.061 210.444 100.441 210.543 100.92C210.642 101.399 210.549 101.841 210.264 102.248Z" fill="#1A1A1A"/>
<path d="M123.539 137.513L109.091 137.726L120.835 126.594L97.8174 126.934L97.9918 115.269L121.647 114.92L109.602 103.536L124.05 103.322L141.855 120.151L123.539 137.513Z" fill="#FCBD3B"/>
</svg>
