<svg width="468" height="217" viewBox="0 0 468 217" fill="none" xmlns="http://www.w3.org/2000/svg">
<path d="M24.014 53L23.0973 53.3995L23.3589 54H24.014V53ZM45.696 53V54H46.3629L46.6192 53.3844L45.696 53ZM61.532 14.964V13.964H60.8651L60.6088 14.5796L61.532 14.964ZM61.68 14.964L62.6045 14.5827L62.3493 13.964H61.68V14.964ZM77.368 53L76.4436 53.3813L76.6987 54H77.368V53ZM99.05 53V54H99.7051L99.9668 53.3995L99.05 53ZM122.138 0.0159984L123.055 0.415473L123.665 -0.984002H122.138V0.0159984ZM102.602 0.0159984V-0.984002H101.921L101.672 -0.350716L102.602 0.0159984ZM87.58 38.126V39.126H88.2607L88.5103 38.4927L87.58 38.126ZM87.506 38.126L86.5775 38.4974L86.829 39.126H87.506V38.126ZM72.262 0.0159984L73.1905 -0.355392L72.939 -0.984002H72.262V0.0159984ZM50.876 0.0159984V-0.984002H50.1953L49.9457 -0.350716L50.876 0.0159984ZM35.854 38.126V39.126H36.5347L36.7843 38.4927L35.854 38.126ZM35.706 38.126L34.7769 38.4958L35.0277 39.126H35.706V38.126ZM20.536 0.0159984L21.4651 -0.353837L21.2143 -0.984002H20.536V0.0159984ZM0.926 0.0159984V-0.984002H-0.600571L0.00925595 0.415473L0.926 0.0159984ZM24.014 54H45.696V52H24.014V54ZM46.6192 53.3844L62.4552 15.3484L60.6088 14.5796L44.7728 52.6156L46.6192 53.3844ZM61.532 15.964H61.68V13.964H61.532V15.964ZM60.7556 15.3453L76.4436 53.3813L78.2925 52.6187L62.6045 14.5827L60.7556 15.3453ZM77.368 54H99.05V52H77.368V54ZM99.9668 53.3995L123.055 0.415473L121.221 -0.383477L98.1333 52.6005L99.9668 53.3995ZM122.138 -0.984002H102.602V1.016H122.138V-0.984002ZM101.672 -0.350716L86.6497 37.7593L88.5103 38.4927L103.532 0.382712L101.672 -0.350716ZM87.58 37.126H87.506V39.126H87.58V37.126ZM88.4345 37.7546L73.1905 -0.355392L71.3335 0.387389L86.5775 38.4974L88.4345 37.7546ZM72.262 -0.984002H50.876V1.016H72.262V-0.984002ZM49.9457 -0.350716L34.9237 37.7593L36.7843 38.4927L51.8063 0.382712L49.9457 -0.350716ZM35.854 37.126H35.706V39.126H35.854V37.126ZM36.6351 37.7562L21.4651 -0.353837L19.6069 0.385833L34.7769 38.4958L36.6351 37.7562ZM20.536 -0.984002H0.926V1.016H20.536V-0.984002ZM0.00925595 0.415473L23.0973 53.3995L24.9307 52.6005L1.84274 -0.383477L0.00925595 0.415473ZM125.817 53H124.817V54H125.817V53ZM145.131 53V54H146.131V53H145.131ZM145.131 31.91V30.91H144.131V31.91H145.131ZM174.361 31.91H175.361V30.91H174.361V31.91ZM174.361 53H173.361V54H174.361V53ZM193.675 53V54H194.675V53H193.675ZM193.675 0.0159984H194.675V-0.984002H193.675V0.0159984ZM174.361 0.0159984V-0.984002H173.361V0.0159984H174.361ZM174.361 18.812V19.812H175.361V18.812H174.361ZM145.131 18.812H144.131V19.812H145.131V18.812ZM145.131 0.0159984H146.131V-0.984002H145.131V0.0159984ZM125.817 0.0159984V-0.984002H124.817V0.0159984H125.817ZM125.817 54H145.131V52H125.817V54ZM146.131 53V31.91H144.131V53H146.131ZM145.131 32.91H174.361V30.91H145.131V32.91ZM173.361 31.91V53H175.361V31.91H173.361ZM174.361 54H193.675V52H174.361V54ZM194.675 53V0.0159984H192.675V53H194.675ZM193.675 -0.984002H174.361V1.016H193.675V-0.984002ZM173.361 0.0159984V18.812H175.361V0.0159984H173.361ZM174.361 17.812H145.131V19.812H174.361V17.812ZM146.131 18.812V0.0159984H144.131V18.812H146.131ZM145.131 -0.984002H125.817V1.016H145.131V-0.984002ZM124.817 0.0159984V53H126.817V0.0159984H124.817ZM223.098 53H222.098V54H223.098V53ZM242.412 53V54H243.412V53H242.412ZM242.412 34.944L241.603 34.3561L241.412 34.619V34.944H242.412ZM267.794 0.0159984L268.603 0.603864L269.757 -0.984002H267.794V0.0159984ZM247.222 0.0159984V-0.984002H246.676L246.38 -0.524477L247.222 0.0159984ZM232.866 22.364V23.364H233.412L233.707 22.9045L232.866 22.364ZM232.792 22.364L231.963 22.9238L232.26 23.364H232.792V22.364ZM217.696 0.0159984L218.524 -0.543757L218.227 -0.984002H217.696V0.0159984ZM197.346 0.0159984V-0.984002H195.366L196.541 0.60943L197.346 0.0159984ZM223.098 34.944H224.098V34.6152L223.903 34.3506L223.098 34.944ZM223.098 54H242.412V52H223.098V54ZM243.412 53V34.944H241.412V53H243.412ZM243.221 35.5319L268.603 0.603864L266.985 -0.571867L241.603 34.3561L243.221 35.5319ZM267.794 -0.984002H247.222V1.016H267.794V-0.984002ZM246.38 -0.524477L232.024 21.8235L233.707 22.9045L248.063 0.556475L246.38 -0.524477ZM232.866 21.364H232.792V23.364H232.866V21.364ZM233.62 21.8042L218.524 -0.543757L216.867 0.575754L231.963 22.9238L233.62 21.8042ZM217.696 -0.984002H197.346V1.016H217.696V-0.984002ZM196.541 0.60943L222.293 35.5374L223.903 34.3506L198.151 -0.577433L196.541 0.60943ZM222.098 34.944V53H224.098V34.944H222.098ZM4.7 135H3.7V136H4.7V135ZM24.014 135V136H25.014V135H24.014ZM24.014 118.794V117.794H23.014V118.794H24.014ZM70.782 100.664L71.782 100.67V100.664H70.782ZM4.7 82.016V81.016H3.7V82.016H4.7ZM24.014 107.916H23.014V108.916H24.014V107.916ZM24.014 92.894V91.894H23.014V92.894H24.014ZM4.7 136H24.014V134H4.7V136ZM25.014 135V118.794H23.014V135H25.014ZM24.014 119.794H47.25V117.794H24.014V119.794ZM47.25 119.794C54.92 119.794 61.0331 118.161 65.2595 114.906C69.5251 111.62 71.7433 106.777 71.782 100.67L69.782 100.658C69.7467 106.243 67.7469 110.465 64.039 113.321C60.2919 116.208 54.676 117.794 47.25 117.794V119.794ZM71.782 100.664C71.782 94.417 69.5904 89.4457 65.3466 86.0626C61.1377 82.7072 55.0381 81.016 47.398 81.016V83.016C54.7799 83.016 60.3723 84.6548 64.0999 87.6264C67.7926 90.5703 69.782 94.923 69.782 100.664H71.782ZM47.398 81.016H4.7V83.016H47.398V81.016ZM3.7 82.016V135H5.7V82.016H3.7ZM25.014 107.916V92.894H23.014V107.916H25.014ZM24.014 93.894H40.96V91.894H24.014V93.894ZM40.96 93.894C44.2182 93.894 46.5891 94.5422 48.1194 95.6398C49.6002 96.702 50.394 98.2544 50.394 100.368H52.394C52.394 97.6716 51.3378 95.487 49.2851 94.0147C47.2819 92.5778 44.4358 91.894 40.96 91.894V93.894ZM50.394 100.368C50.394 102.524 49.596 104.094 48.1166 105.163C46.5875 106.268 44.2185 106.916 40.96 106.916V108.916C44.4355 108.916 47.2835 108.232 49.2879 106.784C51.342 105.3 52.394 103.096 52.394 100.368H50.394ZM40.96 106.916H24.014V108.916H40.96V106.916ZM64.3787 135L63.4838 134.554L62.7627 136H64.3787V135ZM84.3587 135V136H85.0112L85.274 135.403L84.3587 135ZM88.4287 125.75V124.75H87.7762L87.5134 125.347L88.4287 125.75ZM114.847 125.75L115.759 125.341L115.494 124.75H114.847V125.75ZM118.991 135L118.078 135.409L118.343 136H118.991V135ZM139.045 135V136H140.645L139.944 134.562L139.045 135ZM113.219 82.016L114.118 81.5779L113.844 81.016H113.219V82.016ZM90.7967 82.016V81.016H90.1779L89.9018 81.5698L90.7967 82.016ZM92.2027 114.872L91.2915 114.46L90.6529 115.872H92.2027V114.872ZM101.675 93.93V92.93H101.029L100.764 93.5179L101.675 93.93ZM101.823 93.93L102.736 93.5233L102.472 92.93H101.823V93.93ZM111.147 114.872V115.872H112.687L112.06 114.465L111.147 114.872ZM64.3787 136H84.3587V134H64.3787V136ZM85.274 135.403L89.344 126.153L87.5134 125.347L83.4434 134.597L85.274 135.403ZM88.4287 126.75H114.847V124.75H88.4287V126.75ZM113.934 126.159L118.078 135.409L119.903 134.591L115.759 125.341L113.934 126.159ZM118.991 136H139.045V134H118.991V136ZM139.944 134.562L114.118 81.5779L112.32 82.4541L138.146 135.438L139.944 134.562ZM113.219 81.016H90.7967V83.016H113.219V81.016ZM89.9018 81.5698L63.4838 134.554L65.2736 135.446L91.6916 82.4622L89.9018 81.5698ZM93.1138 115.284L102.586 94.3421L100.764 93.5179L91.2915 114.46L93.1138 115.284ZM101.675 94.93H101.823V92.93H101.675V94.93ZM100.909 94.3367L110.233 115.279L112.06 114.465L102.736 93.5233L100.909 94.3367ZM111.147 113.872H92.2027V115.872H111.147V113.872ZM214.284 132.188L214.941 132.942L215.485 132.467L215.206 131.802L214.284 132.188ZM211.028 124.418L211.95 124.032L211.323 122.536L210.268 123.767L211.028 124.418ZM202.814 123.9L201.98 124.452L201.991 124.469L202.003 124.485L202.814 123.9ZM199.04 118.202L198.203 118.749L198.206 118.754L199.04 118.202ZM194.378 114.206H193.378V114.899L194.026 115.142L194.378 114.206ZM194.378 114.132L194.19 113.15L193.378 113.305V114.132H194.378ZM142.8 82.016V81.016H141.8V82.016H142.8ZM142.8 135H141.8V136H142.8V135ZM162.114 135V136H163.114V135H162.114ZM162.114 117.388V116.388H161.114V117.388H162.114ZM182.39 121.976L183.247 121.462L183.227 121.427L183.203 121.395L182.39 121.976ZM185.72 127.526L184.862 128.04L184.879 128.069L184.898 128.097L185.72 127.526ZM162.114 106.51H161.114V107.51H162.114V106.51ZM162.114 93.412V92.412H161.114V93.412H162.114ZM200.742 137.48C203.296 137.48 206.061 137.017 208.562 136.232C211.05 135.45 213.356 134.323 214.941 132.942L213.626 131.434C212.325 132.569 210.302 133.588 207.962 134.323C205.634 135.055 203.071 135.48 200.742 135.48V137.48ZM215.206 131.802L211.95 124.032L210.105 124.804L213.361 132.574L215.206 131.802ZM210.268 123.767C209.958 124.129 209.441 124.476 208.822 124.734C208.205 124.99 207.577 125.12 207.106 125.12V127.12C207.892 127.12 208.781 126.917 209.589 126.581C210.394 126.247 211.209 125.743 211.787 125.069L210.268 123.767ZM207.106 125.12C206.22 125.12 205.559 124.932 205.032 124.637C204.499 124.339 204.046 123.899 203.624 123.315L202.003 124.485C202.543 125.233 203.2 125.903 204.055 126.382C204.915 126.864 205.919 127.12 207.106 127.12V125.12ZM203.647 123.348L199.873 117.65L198.206 118.754L201.98 124.452L203.647 123.348ZM199.877 117.655C198.53 115.595 196.747 114.026 194.729 113.27L194.026 115.142C195.561 115.718 197.033 116.961 198.203 118.749L199.877 117.655ZM195.378 114.206V114.132H193.378V114.206H195.378ZM194.565 115.114C199.55 114.163 203.582 112.243 206.378 109.457C209.19 106.655 210.696 103.03 210.696 98.814H208.696C208.696 102.516 207.389 105.625 204.966 108.04C202.527 110.471 198.899 112.251 194.19 113.15L194.565 115.114ZM210.696 98.814C210.696 93.2014 208.536 88.6935 204.451 85.6199C200.405 82.576 194.577 81.016 187.348 81.016V83.016C194.326 83.016 199.672 84.527 203.248 87.2181C206.786 89.8795 208.696 93.7706 208.696 98.814H210.696ZM187.348 81.016H142.8V83.016H187.348V81.016ZM141.8 82.016V135H143.8V82.016H141.8ZM142.8 136H162.114V134H142.8V136ZM163.114 135V117.388H161.114V135H163.114ZM162.114 118.388H173.436V116.388H162.114V118.388ZM173.436 118.388C176.612 118.388 179.556 119.729 181.576 122.557L183.203 121.395C180.784 118.007 177.215 116.388 173.436 116.388V118.388ZM181.532 122.49L184.862 128.04L186.577 127.012L183.247 121.462L181.532 122.49ZM184.898 128.097C187.987 132.541 192.244 137.48 200.742 137.48V135.48C193.256 135.48 189.521 131.243 186.541 126.955L184.898 128.097ZM163.114 106.51V93.412H161.114V106.51H163.114ZM162.114 94.412H181.576V92.412H162.114V94.412ZM181.576 94.412C184.222 94.412 186.185 94.9965 187.461 95.9516C188.699 96.8787 189.382 98.2195 189.382 99.998H191.382C191.382 97.6325 190.436 95.6803 188.659 94.3504C186.92 93.0485 184.48 92.412 181.576 92.412V94.412ZM189.382 99.998C189.382 101.733 188.704 103.057 187.464 103.977C186.186 104.926 184.221 105.51 181.576 105.51V107.51C184.48 107.51 186.918 106.873 188.656 105.583C190.431 104.265 191.382 102.333 191.382 99.998H189.382ZM181.576 105.51H162.114V107.51H181.576V105.51ZM217.956 135H216.956V136H217.956V135ZM237.27 135V136H238.27V135H237.27ZM237.27 121.532L236.626 120.767L236.27 121.067V121.532H237.27ZM245.262 114.798L246.05 114.183L245.412 113.364L244.618 114.033L245.262 114.798ZM261.024 135L260.235 135.615L260.536 136H261.024V135ZM284.482 135V136H286.604L285.253 134.363L284.482 135ZM258.582 103.624L257.939 102.858L257.179 103.496L257.811 104.261L258.582 103.624ZM284.334 82.016L284.977 82.7821L287.081 81.016H284.334V82.016ZM260.062 82.016V81.016H259.692L259.411 81.2564L260.062 82.016ZM237.418 101.404V102.404H237.787L238.068 102.164L237.418 101.404ZM237.27 101.404H236.27V102.404H237.27V101.404ZM237.27 82.016H238.27V81.016H237.27V82.016ZM217.956 82.016V81.016H216.956V82.016H217.956ZM217.956 136H237.27V134H217.956V136ZM238.27 135V121.532H236.27V135H238.27ZM237.914 122.297L245.906 115.563L244.618 114.033L236.626 120.767L237.914 122.297ZM244.473 115.413L260.235 135.615L261.812 134.385L246.05 114.183L244.473 115.413ZM261.024 136H284.482V134H261.024V136ZM285.253 134.363L259.353 102.987L257.811 104.261L283.711 135.637L285.253 134.363ZM259.225 104.39L284.977 82.7821L283.691 81.2499L257.939 102.858L259.225 104.39ZM284.334 81.016H260.062V83.016H284.334V81.016ZM259.411 81.2564L236.767 100.644L238.068 102.164L260.712 82.7756L259.411 81.2564ZM237.418 100.404H237.27V102.404H237.418V100.404ZM238.27 101.404V82.016H236.27V101.404H238.27ZM237.27 81.016H217.956V83.016H237.27V81.016ZM216.956 82.016V135H218.956V82.016H216.956ZM288.198 135H287.198V136H288.198V135ZM307.364 135V136H308.364V135H307.364ZM307.364 82.016H308.364V81.016H307.364V82.016ZM288.198 82.016V81.016H287.198V82.016H288.198ZM288.198 136H307.364V134H288.198V136ZM308.364 135V82.016H306.364V135H308.364ZM307.364 81.016H288.198V83.016H307.364V81.016ZM287.198 82.016V135H289.198V82.016H287.198ZM314.792 135H313.792V136H314.792V135ZM332.996 135V136H333.996V135H332.996ZM332.996 99.998V98.998H331.996V99.998H332.996ZM333.07 99.998L333.845 99.3657L333.544 98.998H333.07V99.998ZM361.634 135L360.859 135.632L361.159 136H361.634V135ZM384.796 135V136H385.796V135H384.796ZM384.796 82.016H385.796V81.016H384.796V82.016ZM366.592 82.016V81.016H365.592V82.016H366.592ZM366.592 116.574V117.574H367.592V116.574H366.592ZM366.518 116.574L365.746 117.21L366.046 117.574H366.518V116.574ZM338.028 82.016L338.799 81.3799L338.499 81.016H338.028V82.016ZM314.792 82.016V81.016H313.792V82.016H314.792ZM314.792 136H332.996V134H314.792V136ZM333.996 135V99.998H331.996V135H333.996ZM332.996 100.998H333.07V98.998H332.996V100.998ZM332.295 100.63L360.859 135.632L362.409 134.368L333.845 99.3657L332.295 100.63ZM361.634 136H384.796V134H361.634V136ZM385.796 135V82.016H383.796V135H385.796ZM384.796 81.016H366.592V83.016H384.796V81.016ZM365.592 82.016V116.574H367.592V82.016H365.592ZM366.592 115.574H366.518V117.574H366.592V115.574ZM367.289 115.938L338.799 81.3799L337.256 82.6521L365.746 117.21L367.289 115.938ZM338.028 81.016H314.792V83.016H338.028V81.016ZM313.792 82.016V135H315.792V82.016H313.792ZM451.166 126.342V125.342H450.701L450.401 125.698L451.166 126.342ZM451.24 126.342L452.237 126.257L452.158 125.342H451.24V126.342ZM451.98 135L450.984 135.085L451.062 136H451.98V135ZM467.224 135V136H468.224V135H467.224ZM467.224 104.438H468.224V103.438H467.224V104.438ZM420.16 104.438V103.438H419.16V104.438H420.16ZM420.16 114.206H419.16V115.206H420.16V114.206ZM448.576 114.206L449.569 114.325L449.703 113.206H448.576V114.206ZM442.952 101.034L442.007 101.36L442.284 102.164L443.123 102.019L442.952 101.034ZM460.934 97.926L461.105 98.9114L462.132 98.7339L461.912 97.715L460.934 97.926ZM425.192 137.332C436.336 137.332 446.578 133.348 451.931 126.986L450.401 125.698C445.543 131.472 435.953 135.332 425.192 135.332V137.332ZM451.166 127.342H451.24V125.342H451.166V127.342ZM450.244 126.427L450.984 135.085L452.977 134.915L452.237 126.257L450.244 126.427ZM451.98 136H467.224V134H451.98V136ZM468.224 135V104.438H466.224V135H468.224ZM467.224 103.438H420.16V105.438H467.224V103.438ZM419.16 104.438V114.206H421.16V104.438H419.16ZM420.16 115.206H448.576V113.206H420.16V115.206ZM447.583 114.087C447.303 116.424 445.586 118.577 442.616 120.18C439.657 121.778 435.573 122.752 430.89 122.752V124.752C435.827 124.752 440.254 123.728 443.566 121.94C446.867 120.158 449.184 117.538 449.569 114.325L447.583 114.087ZM430.89 122.752C424.858 122.752 419.917 121.306 416.514 118.877C413.135 116.466 411.244 113.076 411.244 109.026H409.244C409.244 113.782 411.498 117.755 415.352 120.505C419.182 123.238 424.564 124.752 430.89 124.752V122.752ZM411.244 109.026C411.244 104.768 412.965 101.239 415.936 98.7582C418.921 96.2648 423.23 94.782 428.448 94.782V92.782C422.863 92.782 418.07 94.3702 414.654 97.2233C411.223 100.089 409.244 104.182 409.244 109.026H411.244ZM428.448 94.782C431.831 94.782 434.93 95.4953 437.336 96.6936C439.753 97.8978 441.38 99.5426 442.007 101.36L443.898 100.708C443.044 98.2334 440.935 96.2522 438.227 94.9034C435.508 93.5487 432.096 92.782 428.448 92.782V94.782ZM443.123 102.019L461.105 98.9114L460.764 96.9406L442.782 100.049L443.123 102.019ZM461.912 97.715C460.721 92.1955 456.595 87.6783 450.719 84.5642C444.838 81.4476 437.122 79.684 428.522 79.684V81.684C436.868 81.684 444.248 83.3984 449.782 86.3313C455.321 89.2666 458.928 93.3705 459.957 98.137L461.912 97.715ZM428.522 79.684C417.112 79.684 407.483 82.6297 400.68 87.865C393.857 93.1167 389.93 100.639 389.93 109.618H391.93C391.93 101.281 395.552 94.3363 401.9 89.45C408.27 84.5473 417.436 81.684 428.522 81.684V79.684ZM389.93 109.618C389.93 117.89 393.52 124.856 399.759 129.729C405.978 134.588 414.777 137.332 425.192 137.332V135.332C415.11 135.332 406.778 132.674 400.99 128.153C395.222 123.647 391.93 117.256 391.93 109.618H389.93ZM4.7 217H3.7V218H4.7V217ZM23.866 217V218H24.866V217H23.866ZM23.866 164.016H24.866V163.016H23.866V164.016ZM4.7 164.016V163.016H3.7V164.016H4.7ZM4.7 218H23.866V216H4.7V218ZM24.866 217V164.016H22.866V217H24.866ZM23.866 163.016H4.7V165.016H23.866V163.016ZM3.7 164.016V217H5.7V164.016H3.7ZM31.2938 217H30.2938V218H31.2938V217ZM49.4977 217V218H50.4977V217H49.4977ZM49.4977 181.998V180.998H48.4977V181.998H49.4977ZM49.5718 181.998L50.3465 181.366L50.0464 180.998H49.5718V181.998ZM78.1357 217L77.361 217.632L77.6611 218H78.1357V217ZM101.298 217V218H102.298V217H101.298ZM101.298 164.016H102.298V163.016H101.298V164.016ZM83.0938 164.016V163.016H82.0938V164.016H83.0938ZM83.0938 198.574V199.574H84.0938V198.574H83.0938ZM83.0198 198.574L82.2482 199.21L82.5481 199.574H83.0198V198.574ZM54.5298 164.016L55.3013 163.38L55.0014 163.016H54.5298V164.016ZM31.2938 164.016V163.016H30.2938V164.016H31.2938ZM31.2938 218H49.4977V216H31.2938V218ZM50.4977 217V181.998H48.4977V217H50.4977ZM49.4977 182.998H49.5718V180.998H49.4977V182.998ZM48.797 182.63L77.361 217.632L78.9105 216.368L50.3465 181.366L48.797 182.63ZM78.1357 218H101.298V216H78.1357V218ZM102.298 217V164.016H100.298V217H102.298ZM101.298 163.016H83.0938V165.016H101.298V163.016ZM82.0938 164.016V198.574H84.0938V164.016H82.0938ZM83.0938 197.574H83.0198V199.574H83.0938V197.574ZM83.7913 197.938L55.3013 163.38L53.7582 164.652L82.2482 199.21L83.7913 197.938ZM54.5298 163.016H31.2938V165.016H54.5298V163.016ZM30.2938 164.016V217H32.2938V164.016H30.2938ZM108.69 217H107.69V218H108.69V217ZM128.004 217V218H129.004V217H128.004ZM128.004 198.352V197.352H127.004V198.352H128.004ZM160.046 198.352V199.352H161.046V198.352H160.046ZM160.046 187.252H161.046V186.252H160.046V187.252ZM128.004 187.252H127.004V188.252H128.004V187.252ZM128.004 177.632V176.632H127.004V177.632H128.004ZM164.412 177.632V178.632H165.412V177.632H164.412ZM164.412 164.016H165.412V163.016H164.412V164.016ZM108.69 164.016V163.016H107.69V164.016H108.69ZM108.69 218H128.004V216H108.69V218ZM129.004 217V198.352H127.004V217H129.004ZM128.004 199.352H160.046V197.352H128.004V199.352ZM161.046 198.352V187.252H159.046V198.352H161.046ZM160.046 186.252H128.004V188.252H160.046V186.252ZM129.004 187.252V177.632H127.004V187.252H129.004ZM128.004 178.632H164.412V176.632H128.004V178.632ZM165.412 177.632V164.016H163.412V177.632H165.412ZM164.412 163.016H108.69V165.016H164.412V163.016ZM107.69 164.016V217H109.69V164.016H107.69ZM169.538 217H168.538V218H169.538V217ZM188.704 217V218H189.704V217H188.704ZM188.704 164.016H189.704V163.016H188.704V164.016ZM169.538 164.016V163.016H168.538V164.016H169.538ZM169.538 218H188.704V216H169.538V218ZM189.704 217V164.016H187.704V217H189.704ZM188.704 163.016H169.538V165.016H188.704V163.016ZM168.538 164.016V217H170.538V164.016H168.538ZM196.132 217H195.132V218H196.132V217ZM214.336 217V218H215.336V217H214.336ZM214.336 181.998V180.998H213.336V181.998H214.336ZM214.41 181.998L215.184 181.366L214.884 180.998H214.41V181.998ZM242.974 217L242.199 217.632L242.499 218H242.974V217ZM266.136 217V218H267.136V217H266.136ZM266.136 164.016H267.136V163.016H266.136V164.016ZM247.932 164.016V163.016H246.932V164.016H247.932ZM247.932 198.574V199.574H248.932V198.574H247.932ZM247.858 198.574L247.086 199.21L247.386 199.574H247.858V198.574ZM219.368 164.016L220.139 163.38L219.839 163.016H219.368V164.016ZM196.132 164.016V163.016H195.132V164.016H196.132ZM196.132 218H214.336V216H196.132V218ZM215.336 217V181.998H213.336V217H215.336ZM214.336 182.998H214.41V180.998H214.336V182.998ZM213.635 182.63L242.199 217.632L243.748 216.368L215.184 181.366L213.635 182.63ZM242.974 218H266.136V216H242.974V218ZM267.136 217V164.016H265.136V217H267.136ZM266.136 163.016H247.932V165.016H266.136V163.016ZM246.932 164.016V198.574H248.932V164.016H246.932ZM247.932 197.574H247.858V199.574H247.932V197.574ZM248.629 197.938L220.139 163.38L218.596 164.652L247.086 199.21L248.629 197.938ZM219.368 163.016H196.132V165.016H219.368V163.016ZM195.132 164.016V217H197.132V164.016H195.132ZM273.528 217H272.528V218H273.528V217ZM292.694 217V218H293.694V217H292.694ZM292.694 164.016H293.694V163.016H292.694V164.016ZM273.528 164.016V163.016H272.528V164.016H273.528ZM273.528 218H292.694V216H273.528V218ZM293.694 217V164.016H291.694V217H293.694ZM292.694 163.016H273.528V165.016H292.694V163.016ZM272.528 164.016V217H274.528V164.016H272.528ZM317.734 217H316.734V218H317.734V217ZM337.048 217V218H338.048V217H337.048ZM337.048 177.632V176.632H336.048V177.632H337.048ZM357.694 177.632V178.632H358.694V177.632H357.694ZM357.694 164.016H358.694V163.016H357.694V164.016ZM297.088 164.016V163.016H296.088V164.016H297.088ZM297.088 177.632H296.088V178.632H297.088V177.632ZM317.734 177.632H318.734V176.632H317.734V177.632ZM317.734 218H337.048V216H317.734V218ZM338.048 217V177.632H336.048V217H338.048ZM337.048 178.632H357.694V176.632H337.048V178.632ZM358.694 177.632V164.016H356.694V177.632H358.694ZM357.694 163.016H297.088V165.016H357.694V163.016ZM296.088 164.016V177.632H298.088V164.016H296.088ZM297.088 178.632H317.734V176.632H297.088V178.632ZM316.734 177.632V217H318.734V177.632H316.734ZM384.106 217H383.106V218H384.106V217ZM403.42 217V218H404.42V217H403.42ZM403.42 198.944L402.611 198.356L402.42 198.619V198.944H403.42ZM428.802 164.016L429.61 164.604L430.764 163.016H428.802V164.016ZM408.23 164.016V163.016H407.683L407.388 163.476L408.23 164.016ZM393.874 186.364V187.364H394.42L394.715 186.904L393.874 186.364ZM393.8 186.364L392.971 186.924L393.268 187.364H393.8V186.364ZM378.704 164.016L379.532 163.456L379.235 163.016H378.704V164.016ZM358.354 164.016V163.016H356.374L357.549 164.609L358.354 164.016ZM384.106 198.944H385.106V198.615L384.91 198.351L384.106 198.944ZM384.106 218H403.42V216H384.106V218ZM404.42 217V198.944H402.42V217H404.42ZM404.228 199.532L429.61 164.604L427.993 163.428L402.611 198.356L404.228 199.532ZM428.802 163.016H408.23V165.016H428.802V163.016ZM407.388 163.476L393.032 185.824L394.715 186.904L409.071 164.556L407.388 163.476ZM393.874 185.364H393.8V187.364H393.874V185.364ZM394.628 185.804L379.532 163.456L377.875 164.576L392.971 186.924L394.628 185.804ZM378.704 163.016H358.354V165.016H378.704V163.016ZM357.549 164.609L383.301 199.537L384.91 198.351L359.158 163.423L357.549 164.609ZM383.106 198.944V217H385.106V198.944H383.106Z" fill="#BABABA"/>
</svg>
