<svg width="341" height="341" viewBox="0 0 341 341" fill="none" xmlns="http://www.w3.org/2000/svg">
<path d="M242.826 32.8154C247.141 37.1304 248.48 44.1473 247.042 53.2996C245.606 62.4385 241.416 73.5955 234.833 86.0411C221.67 110.927 198.998 140.86 169.929 169.929C140.86 198.998 110.927 221.67 86.0411 234.833C73.5955 241.416 62.4386 245.606 53.2996 247.042C44.1474 248.48 37.1304 247.141 32.8155 242.826C28.5005 238.511 27.162 231.494 28.5999 222.342C30.0356 213.203 34.226 202.046 40.8088 189.601C53.9714 164.715 76.6436 134.781 105.712 105.712C134.781 76.6436 164.715 53.9713 189.601 40.8087C202.046 34.2259 213.203 30.0356 222.342 28.5998C231.494 27.1619 238.511 28.5005 242.826 32.8154Z" stroke="#6A6A6A"/>
<path d="M275.288 65.2774C279.603 69.5923 280.942 76.6093 279.504 85.7615C278.068 94.9004 273.878 106.057 267.295 118.503C254.132 143.388 231.46 173.322 202.391 202.391C173.322 231.46 143.389 254.132 118.503 267.295C106.057 273.878 94.9005 278.068 85.7615 279.504C76.6093 280.942 69.5924 279.603 65.2774 275.288C60.9625 270.973 59.6239 263.956 61.0618 254.804C62.4976 245.665 66.6879 234.508 73.2707 222.062C86.4333 197.177 109.106 167.243 138.174 138.174C167.243 109.105 197.177 86.4332 222.063 73.2706C234.508 66.6879 245.665 62.4975 254.804 61.0617C263.956 59.6238 270.973 60.9624 275.288 65.2774Z" stroke="#6A6A6A"/>
<path d="M307.75 97.7393C312.065 102.054 313.404 109.071 311.966 118.223C310.53 127.362 306.34 138.519 299.757 150.965C286.594 175.85 263.922 205.784 234.853 234.853C205.784 263.922 175.85 286.594 150.965 299.757C138.519 306.34 127.362 310.53 118.223 311.966C109.071 313.404 102.054 312.065 97.7394 307.75C93.4244 303.435 92.0858 296.418 93.5237 287.266C94.9595 278.127 99.1499 266.97 105.733 254.524C118.895 229.639 141.567 199.705 170.636 170.636C199.705 141.567 229.639 118.895 254.524 105.733C266.97 99.1498 278.127 94.9595 287.266 93.5237C296.418 92.0858 303.435 93.4244 307.75 97.7393Z" stroke="#6A6A6A"/>
</svg>
