<svg width="156" height="102" viewBox="0 0 156 102" fill="none" xmlns="http://www.w3.org/2000/svg">
<path fill-rule="evenodd" clip-rule="evenodd" d="M58.4961 49.4875C57.6703 49.6747 56.8382 49.8456 56 50C56.8382 50.1544 57.6703 50.3254 58.4961 50.5125C81.8929 55.8141 100.186 74.107 105.488 97.5039C105.675 98.3297 105.846 99.1618 106 100C106.154 99.1618 106.325 98.3297 106.512 97.5039C111.814 74.1071 130.107 55.8141 153.504 50.5125C154.33 50.3254 155.162 50.1544 156 50C155.162 49.8456 154.33 49.6747 153.504 49.4875C130.107 44.1859 111.814 25.8929 106.512 2.49611C106.325 1.67032 106.154 0.838165 106 0C105.846 0.838167 105.675 1.67032 105.488 2.49612C100.186 25.893 81.893 44.1859 58.4961 49.4875ZM60.6226 50C82.8478 55.7631 100.237 73.1522 106 95.3774C111.763 73.1522 129.152 55.7631 151.377 50C129.152 44.2369 111.763 26.8478 106 4.62261C100.237 26.8478 82.8478 44.2369 60.6226 50Z" fill="#1A1A1A"/>
<path fill-rule="evenodd" clip-rule="evenodd" d="M2.283 78.4827C1.53396 78.6848 0.77253 78.8577 0 79C0.772529 79.1423 1.53396 79.3152 2.283 79.5173C12.1242 82.1724 19.8276 89.8758 22.4827 99.717C22.6848 100.466 22.8577 101.227 23 102C23.1423 101.227 23.3152 100.466 23.5173 99.717C26.1724 89.8758 33.8758 82.1724 43.717 79.5173C44.466 79.3152 45.2275 79.1423 46 79C45.2275 78.8577 44.466 78.6848 43.717 78.4827C33.8758 75.8276 26.1724 68.1242 23.5173 58.283C23.3152 57.534 23.1423 56.7725 23 56C22.8577 56.7725 22.6848 57.534 22.4827 58.283C19.8276 68.1242 12.1242 75.8276 2.283 78.4827ZM4.04592 79C13.013 81.9356 20.0644 88.987 23 97.9541C25.9356 88.987 32.987 81.9356 41.9541 79C32.987 76.0644 25.9356 69.013 23 60.0459C20.0644 69.013 13.013 76.0644 4.04592 79Z" fill="#1A1A1A"/>
</svg>
