<svg width="120" height="120" viewBox="0 0 120 120" fill="none" xmlns="http://www.w3.org/2000/svg">
<path d="M98.8477 55.5H111.382C112.828 55.5 114 56.672 114 58.1177C114 61.2501 111.46 63.7895 108.328 63.7895H98.8477V55.5Z" fill="#FCBD3B"/>
<path d="M47.1523 55.5H34.6179C33.1722 55.5 32.0002 56.672 32.0002 58.1177C32.0002 61.2501 34.5395 63.7895 37.6719 63.7895H47.1523V55.5Z" fill="#FCBD3B"/>
<path d="M36.4565 67.1846C36.4565 62.7663 40.0383 59.1846 44.4565 59.1846H101.543C105.962 59.1846 109.544 62.7663 109.544 67.1846V85.8951H36.4565V67.1846Z" fill="#FCBD3B"/>
<path d="M49.1922 44.0419C50.0891 40.4892 53.2848 38 56.9489 38H89.0512C92.7153 38 95.9111 40.4892 96.8079 44.0419L100.631 59.1842H45.3696L49.1922 44.0419Z" fill="#FCBD3B"/>
<path d="M55.4282 47.1462C56.0437 45.003 58.004 43.5264 60.2339 43.5264H85.7661C87.996 43.5264 89.9563 45.003 90.5718 47.1462L93.5 57.3422H52.5L55.4282 47.1462Z" fill="#F6F6F6"/>
<path d="M85.4783 47.6709L77.4565 57.342" stroke="#333333" stroke-width="2"/>
<path d="M66.761 47.6709L58.7393 57.342" stroke="#333333" stroke-width="2"/>
<rect x="32" y="85.8945" width="82" height="9.21052" rx="2" fill="#333333"/>
<path d="M39.1304 95.1055H53.3912V102C53.3912 105.314 50.7049 108 47.3912 108H45.1304C41.8167 108 39.1304 105.314 39.1304 102V95.1055Z" fill="#333333"/>
<path d="M92.6089 95.1055H106.87V102C106.87 105.314 104.183 108 100.87 108H98.6089C95.2952 108 92.6089 105.314 92.6089 102V95.1055Z" fill="#333333"/>
<ellipse cx="96.1737" cy="73.921" rx="6.23913" ry="6.44737" fill="#F6F6F6"/>
<ellipse cx="48.9349" cy="73.921" rx="6.23913" ry="6.44737" fill="#F6F6F6"/>
<ellipse cx="96.1741" cy="73.9215" rx="3.56522" ry="3.68421" fill="#343434"/>
<ellipse cx="48.9348" cy="73.9215" rx="3.56522" ry="3.68421" fill="#343434"/>
<rect x="63.1958" y="68.3945" width="19.6087" height="2.76316" fill="#BE8300"/>
<rect x="63.1958" y="72.0791" width="19.6087" height="2.76316" fill="#BE8300"/>
<rect x="63.1958" y="75.7627" width="19.6087" height="2.76316" fill="#BE8300"/>
<rect x="7" y="9" width="39" height="39" rx="7" fill="#FCBD3B"/>
<path d="M18 30.8387H29.5806C32.5737 30.8387 35 28.4124 35 25.4194V25.4194C35 22.4263 32.5737 20 29.5806 20H18V25.4194V30.8387ZM18 30.8387V44" stroke="#333333" stroke-width="5"/>
<rect x="25" y="48" width="4" height="58" fill="#333333"/>
</svg>
