<svg width="120" height="120" viewBox="0 0 120 120" fill="none" xmlns="http://www.w3.org/2000/svg">
<path d="M17 51.4215L59.8089 30.0703L103 51.4215L59.8089 72.7726L17 51.4215Z" fill="#333333"/>
<path d="M17 51.4214L59.8089 30.0702V9.46493C59.8089 6.49314 56.683 4.55907 54.0236 5.88545L21.4294 22.142C18.7152 23.4957 17 26.2679 17 29.301V51.4214Z" fill="#ECA616"/>
<path d="M17 51.4219L59.8089 72.773V87.2613L17 65.9102V51.4219Z" fill="#575757"/>
<path d="M20.0576 67.4346L59.8087 87.2607V117L20.0576 97.1737V67.4346Z" fill="#FCBD3B"/>
<path d="M59.8091 117L99.5602 97.1739V67.4348L59.8091 87.2609V117Z" fill="#ECA616"/>
<path d="M59.8091 87.2607L103 65.9096V51.4213L59.8091 72.7724V87.2607Z" fill="#282828"/>
<path fill-rule="evenodd" clip-rule="evenodd" d="M40.8518 19.9215L41.8116 19.4652C42.7703 19.0095 43.5474 19.5007 43.5474 20.5624C43.5474 21.624 42.7703 22.8541 41.8116 23.3098L40.8523 23.7658C40.3429 24.7103 39.5602 25.5319 38.6826 25.9489C37.8054 26.3657 37.023 26.288 36.5136 25.8282L35.5537 26.2845C34.595 26.7402 33.8179 26.249 33.8179 25.1873C33.8179 24.1257 34.595 22.8956 35.5537 22.4399L36.5127 21.9841C37.0221 21.0394 37.8048 20.2177 38.6826 19.8007C39.5599 19.3838 40.3423 19.4615 40.8518 19.9215Z" fill="white"/>
<path d="M52.4641 55.1431C50.7423 54.3225 49.8618 53.3881 49.8225 52.3397C49.769 51.2845 50.5649 50.2223 52.2102 49.153C53.7431 48.1569 55.2729 47.5474 56.7996 47.3245C58.3405 47.0925 59.7228 47.2681 60.9465 47.8513C61.6864 48.204 62.1367 48.6166 62.2974 49.0892C62.4579 49.5459 62.5065 50.1234 62.443 50.8218C62.4066 51.4065 62.4326 51.8624 62.521 52.1897C62.6094 52.5169 62.8812 52.789 63.3366 53.006L59.8139 55.2954C59.2447 55.0241 58.824 54.7365 58.5518 54.4326C58.2937 54.1195 58.1349 53.8299 58.0755 53.564C58.0161 53.2981 57.9843 52.9661 57.9801 52.5681C57.9902 52.1769 57.9587 51.8767 57.8858 51.6677C57.8126 51.4428 57.6195 51.2557 57.3065 51.1065C56.9934 50.9573 56.6954 50.8945 56.4125 50.9181C56.1437 50.9325 55.8545 51.0403 55.5452 51.2413C55.1514 51.4972 54.9983 51.749 55.0858 51.9967C55.1734 52.2443 55.5089 52.5071 56.0923 52.7852L52.4641 55.1431ZM62.6115 54.7515C63.2584 54.3311 63.9851 54.0913 64.7915 54.0321C65.5977 53.9569 66.321 54.0719 66.9613 54.3771C67.6159 54.689 67.9456 55.0758 67.9504 55.5375C67.9551 55.9833 67.634 56.4164 66.9871 56.8367C66.3543 57.248 65.6347 57.4912 64.8285 57.5664C64.0221 57.6256 63.2916 57.4993 62.637 57.1873C61.9967 56.8822 61.6742 56.5067 61.6696 56.0609C61.6647 55.5992 61.9787 55.1628 62.6115 54.7515Z" fill="#ECA616"/>
</svg>
