<svg width="120" height="120" viewBox="0 0 120 120" fill="none" xmlns="http://www.w3.org/2000/svg">
<path d="M13.0305 43.1968C11.3568 39.1078 13.1913 34.1669 17.1281 32.161L69.1939 5.63215C73.1307 3.62629 77.6788 5.31501 79.3525 9.40401L106.674 76.153C108.348 80.242 106.513 85.1829 102.576 87.1887L50.5104 113.718C46.5737 115.723 42.0255 114.035 40.3518 109.946L13.0305 43.1968Z" fill="#333333"/>
<path d="M13.0305 43.1968C11.3568 39.1078 13.1913 34.1669 17.1281 32.161L69.1939 5.63215C73.1307 3.62629 77.6788 5.31501 79.3525 9.40401L82.1558 16.2528L15.8338 50.0456L13.0305 43.1968Z" fill="#FCBD3B"/>
<rect width="22.2449" height="22.2449" transform="matrix(0.891007 -0.453991 0.37881 0.925474 28.8706 54.8867)" fill="#FCBD3B"/>
<rect width="22.2449" height="3.4223" transform="matrix(0.891007 -0.453991 0.37881 0.925474 54.7896 41.6807)" fill="#F6F6F6"/>
<rect width="22.2449" height="3.4223" transform="matrix(0.891007 -0.453991 0.37881 0.925474 58.355 50.3896)" fill="#F6F6F6"/>
<rect width="22.2449" height="3.4223" transform="matrix(0.891007 -0.453991 0.37881 0.925474 61.9199 59.0996)" fill="#F6F6F6"/>
<rect width="51.3344" height="3.4223" transform="matrix(0.891007 -0.453991 0.37881 0.925474 40.5381 83.3916)" fill="#F6F6F6"/>
<rect width="51.3344" height="3.4223" transform="matrix(0.891007 -0.453991 0.37881 0.925474 45.0757 94.4766)" fill="#F6F6F6"/>
</svg>
