<svg width="210" height="58" viewBox="0 0 210 58" fill="none" xmlns="http://www.w3.org/2000/svg">
<g clip-path="url(#clip0_127_1610)">
<path fill-rule="evenodd" clip-rule="evenodd" d="M28.7863 56.5727C44.1323 56.5727 56.5727 44.1323 56.5727 28.7863C56.5727 13.4404 44.1323 1 28.7863 1C13.4404 1 1 13.4404 1 28.7863C1 44.1323 13.4404 56.5727 28.7863 56.5727ZM28.7863 57.5727C44.6846 57.5727 57.5727 44.6846 57.5727 28.7863C57.5727 12.8881 44.6846 0 28.7863 0C12.8881 0 0 12.8881 0 28.7863C0 44.6846 12.8881 57.5727 28.7863 57.5727Z" fill="#1A1A1A"/>
<path fill-rule="evenodd" clip-rule="evenodd" d="M59.3664 56.5727C74.7124 56.5727 87.1527 44.1323 87.1527 28.7863C87.1527 13.4404 74.7124 1 59.3664 1C44.0204 1 31.5801 13.4404 31.5801 28.7863C31.5801 44.1323 44.0204 56.5727 59.3664 56.5727ZM59.3664 57.5727C75.2647 57.5727 88.1527 44.6846 88.1527 28.7863C88.1527 12.8881 75.2647 0 59.3664 0C43.4682 0 30.5801 12.8881 30.5801 28.7863C30.5801 44.6846 43.4682 57.5727 59.3664 57.5727Z" fill="#1A1A1A"/>
<path fill-rule="evenodd" clip-rule="evenodd" d="M89.9475 56.5727C105.293 56.5727 117.734 44.1323 117.734 28.7863C117.734 13.4404 105.293 1 89.9475 1C74.6015 1 62.1611 13.4404 62.1611 28.7863C62.1611 44.1323 74.6015 56.5727 89.9475 56.5727ZM89.9475 57.5727C105.846 57.5727 118.734 44.6846 118.734 28.7863C118.734 12.8881 105.846 0 89.9475 0C74.0492 0 61.1611 12.8881 61.1611 28.7863C61.1611 44.6846 74.0492 57.5727 89.9475 57.5727Z" fill="#1A1A1A"/>
<path fill-rule="evenodd" clip-rule="evenodd" d="M120.528 56.5727C135.874 56.5727 148.314 44.1323 148.314 28.7863C148.314 13.4404 135.874 1 120.528 1C105.182 1 92.7412 13.4404 92.7412 28.7863C92.7412 44.1323 105.182 56.5727 120.528 56.5727ZM120.528 57.5727C136.426 57.5727 149.314 44.6846 149.314 28.7863C149.314 12.8881 136.426 0 120.528 0C104.629 0 91.7412 12.8881 91.7412 28.7863C91.7412 44.6846 104.629 57.5727 120.528 57.5727Z" fill="#1A1A1A"/>
<path fill-rule="evenodd" clip-rule="evenodd" d="M151.108 56.5727C166.454 56.5727 178.894 44.1323 178.894 28.7863C178.894 13.4404 166.454 1 151.108 1C135.762 1 123.322 13.4404 123.322 28.7863C123.322 44.1323 135.762 56.5727 151.108 56.5727ZM151.108 57.5727C167.006 57.5727 179.894 44.6846 179.894 28.7863C179.894 12.8881 167.006 0 151.108 0C135.21 0 122.322 12.8881 122.322 28.7863C122.322 44.6846 135.21 57.5727 151.108 57.5727Z" fill="#1A1A1A"/>
<circle cx="181.689" cy="28.7863" r="28.7863" fill="#1A1A1A"/>
</g>
<defs>
<clipPath id="clip0_127_1610">
<rect width="210" height="58" fill="white"/>
</clipPath>
</defs>
</svg>
